bend_the_leg_backward coordinate motion generated from LLM joint_angles
version=1
nRows=24
nColumns=36
inDegrees=yes
endheader
time	pelvis_tilt	pelvis_list	pelvis_rotation	pelvis_tx	pelvis_ty	pelvis_tz	hip_flexion_r	hip_adduction_r	hip_rotation_r	knee_angle_r	knee_angle_r_beta	ankle_angle_r	subtalar_angle_r	mtp_angle_r	hip_flexion_l	hip_adduction_l	hip_rotation_l	knee_angle_l	knee_angle_l_beta	ankle_angle_l	subtalar_angle_l	mtp_angle_l	lumbar_extension	lumbar_bending	lumbar_rotation	arm_flex_r	arm_add_r	arm_rot_r	elbow_flex_r	pro_sup_r	arm_flex_l	arm_add_l	arm_rot_l	elbow_flex_l	pro_sup_l
0.500000	0.000000	0.000000	0.000000	0.000000	0.000000	0.000000	-20.000000	0.000000	0.000000	90.000000	0.000000	-10.000000	0.000000	0.000000	-20.000000	0.000000	0.000000	90.000000	0.000000	-10.000000	0.000000	0.000000	0.000000	0.000000	0.000000	0.000000	0.000000	0.000000	0.000000	0.000000	0.000000	0.000000	0.000000	0.000000	0.000000
0.506667	0.000000	0.000000	0.000000	0.000000	0.000000	0.000000	-19.995614	0.000000	0.000000	89.980262	0.000000	-9.997807	0.000000	0.000000	-19.995614	0.000000	0.000000	89.980262	0.000000	-9.997807	0.000000	0.000000	0.000000	0.000000	0.000000	0.000000	0.000000	0.000000	0.000000	0.000000	0.000000	0.000000	0.000000	0.000000	0.000000
0.513333	0.000000	0.000000	0.000000	0.000000	0.000000	0.000000	-19.982457	0.000000	0.000000	89.921055	0.000000	-9.991228	0.000000	0.000000	-19.982457	0.000000	0.000000	89.921055	0.000000	-9.991228	0.000000	0.000000	0.000000	0.000000	0.000000	0.000000	0.000000	0.000000	0.000000	0.000000	0.000000	0.000000	0.000000	0.000000	0.000000
0.520000	0.000000	0.000000	0.000000	0.000000	0.000000	0.000000	-19.960535	0.000000	0.000000	89.822406	0.000000	-9.980267	0.000000	0.000000	-19.960535	0.000000	0.000000	89.822406	0.000000	-9.980267	0.000000	0.000000	0.000000	0.000000	0.000000	0.000000	0.000000	0.000000	0.000000	0.000000	0.000000	0.000000	0.000000	0.000000	0.000000
0.526667	0.000000	0.000000	0.000000	0.000000	0.000000	0.000000	-19.929857	0.000000	0.000000	89.684357	0.000000	-9.964929	0.000000	0.000000	-19.929857	0.000000	0.000000	89.684357	0.000000	-9.964929	0.000000	0.000000	0.000000	0.000000	0.000000	0.000000	0.000000	0.000000	0.000000	0.000000	0.000000	0.000000	0.000000	0.000000	0.000000
0.533333	0.000000	0.000000	0.000000	0.000000	0.000000	0.000000	-19.890438	0.000000	0.000000	89.506971	0.000000	-9.945219	0.000000	0.000000	-19.890438	0.000000	0.000000	89.506971	0.000000	-9.945219	0.000000	0.000000	0.000000	0.000000	0.000000	0.000000	0.000000	0.000000	0.000000	0.000000	0.000000	0.000000	0.000000	0.000000	0.000000
0.540000	0.000000	0.000000	0.000000	0.000000	0.000000	0.000000	-19.842294	0.000000	0.000000	89.290323	0.000000	-9.921147	0.000000	0.000000	-19.842294	0.000000	0.000000	89.290323	0.000000	-9.921147	0.000000	0.000000	0.000000	0.000000	0.000000	0.000000	0.000000	0.000000	0.000000	0.000000	0.000000	0.000000	0.000000	0.000000	0.000000
0.546667	0.000000	0.000000	0.000000	0.000000	0.000000	0.000000	-19.785447	0.000000	0.000000	89.034510	0.000000	-9.892723	0.000000	0.000000	-19.785447	0.000000	0.000000	89.034510	0.000000	-9.892723	0.000000	0.000000	0.000000	0.000000	0.000000	0.000000	0.000000	0.000000	0.000000	0.000000	0.000000	0.000000	0.000000	0.000000	0.000000
0.553333	0.000000	0.000000	0.000000	0.000000	0.000000	0.000000	-19.719921	0.000000	0.000000	88.739643	0.000000	-9.859960	0.000000	0.000000	-19.719921	0.000000	0.000000	88.739643	0.000000	-9.859960	0.000000	0.000000	0.000000	0.000000	0.000000	0.000000	0.000000	0.000000	0.000000	0.000000	0.000000	0.000000	0.000000	0.000000	0.000000
0.560000	0.000000	0.000000	0.000000	0.000000	0.000000	0.000000	-19.645745	0.000000	0.000000	88.405853	0.000000	-9.822873	0.000000	0.000000	-19.645745	0.000000	0.000000	88.405853	0.000000	-9.822873	0.000000	0.000000	0.000000	0.000000	0.000000	0.000000	0.000000	0.000000	0.000000	0.000000	0.000000	0.000000	0.000000	0.000000	0.000000
0.566667	0.000000	0.000000	0.000000	0.000000	0.000000	0.000000	-19.562952	0.000000	0.000000	88.033284	0.000000	-9.781476	0.000000	0.000000	-19.562952	0.000000	0.000000	88.033284	0.000000	-9.781476	0.000000	0.000000	0.000000	0.000000	0.000000	0.000000	0.000000	0.000000	0.000000	0.000000	0.000000	0.000000	0.000000	0.000000	0.000000
0.573333	0.000000	0.000000	0.000000	0.000000	0.000000	0.000000	-19.471578	0.000000	0.000000	87.622101	0.000000	-9.735789	0.000000	0.000000	-19.471578	0.000000	0.000000	87.622101	0.000000	-9.735789	0.000000	0.000000	0.000000	0.000000	0.000000	0.000000	0.000000	0.000000	0.000000	0.000000	0.000000	0.000000	0.000000	0.000000	0.000000
0.580000	0.000000	0.000000	0.000000	0.000000	0.000000	0.000000	-19.371663	0.000000	0.000000	87.172485	0.000000	-9.685832	0.000000	0.000000	-19.371663	0.000000	0.000000	87.172485	0.000000	-9.685832	0.000000	0.000000	0.000000	0.000000	0.000000	0.000000	0.000000	0.000000	0.000000	0.000000	0.000000	0.000000	0.000000	0.000000	0.000000
0.586667	0.000000	0.000000	0.000000	0.000000	0.000000	0.000000	-19.263251	0.000000	0.000000	86.684631	0.000000	-9.631626	0.000000	0.000000	-19.263251	0.000000	0.000000	86.684631	0.000000	-9.631626	0.000000	0.000000	0.000000	0.000000	0.000000	0.000000	0.000000	0.000000	0.000000	0.000000	0.000000	0.000000	0.000000	0.000000	0.000000
0.593333	0.000000	0.000000	0.000000	0.000000	0.000000	0.000000	-19.146390	0.000000	0.000000	86.158755	0.000000	-9.573195	0.000000	0.000000	-19.146390	0.000000	0.000000	86.158755	0.000000	-9.573195	0.000000	0.000000	0.000000	0.000000	0.000000	0.000000	0.000000	0.000000	0.000000	0.000000	0.000000	0.000000	0.000000	0.000000	0.000000
0.600000	0.000000	0.000000	0.000000	0.000000	0.000000	0.000000	-19.021130	0.000000	0.000000	85.595086	0.000000	-9.510565	0.000000	0.000000	-19.021130	0.000000	0.000000	85.595086	0.000000	-9.510565	0.000000	0.000000	0.000000	0.000000	0.000000	0.000000	0.000000	0.000000	0.000000	0.000000	0.000000	0.000000	0.000000	0.000000	0.000000
0.606667	0.000000	0.000000	0.000000	0.000000	0.000000	0.000000	-18.887527	0.000000	0.000000	84.993873	0.000000	-9.443764	0.000000	0.000000	-18.887527	0.000000	0.000000	84.993873	0.000000	-9.443764	0.000000	0.000000	0.000000	0.000000	0.000000	0.000000	0.000000	0.000000	0.000000	0.000000	0.000000	0.000000	0.000000	0.000000	0.000000
0.613333	0.000000	0.000000	0.000000	0.000000	0.000000	0.000000	-18.745640	0.000000	0.000000	84.355379	0.000000	-9.372820	0.000000	0.000000	-18.745640	0.000000	0.000000	84.355379	0.000000	-9.372820	0.000000	0.000000	0.000000	0.000000	0.000000	0.000000	0.000000	0.000000	0.000000	0.000000	0.000000	0.000000	0.000000	0.000000	0.000000
0.620000	0.000000	0.000000	0.000000	0.000000	0.000000	0.000000	-18.595530	0.000000	0.000000	83.679884	0.000000	-9.297765	0.000000	0.000000	-18.595530	0.000000	0.000000	83.679884	0.000000	-9.297765	0.000000	0.000000	0.000000	0.000000	0.000000	0.000000	0.000000	0.000000	0.000000	0.000000	0.000000	0.000000	0.000000	0.000000	0.000000
0.626667	0.000000	0.000000	0.000000	0.000000	0.000000	0.000000	-18.437263	0.000000	0.000000	82.967684	0.000000	-9.218632	0.000000	0.000000	-18.437263	0.000000	0.000000	82.967684	0.000000	-9.218632	0.000000	0.000000	0.000000	0.000000	0.000000	0.000000	0.000000	0.000000	0.000000	0.000000	0.000000	0.000000	0.000000	0.000000	0.000000
0.633333	0.000000	0.000000	0.000000	0.000000	0.000000	0.000000	-18.270909	0.000000	0.000000	82.219091	0.000000	-9.135455	0.000000	0.000000	-18.270909	0.000000	0.000000	82.219091	0.000000	-9.135455	0.000000	0.000000	0.000000	0.000000	0.000000	0.000000	0.000000	0.000000	0.000000	0.000000	0.000000	0.000000	0.000000	0.000000	0.000000
0.640000	0.000000	0.000000	0.000000	0.000000	0.000000	0.000000	-18.096541	0.000000	0.000000	81.434435	0.000000	-9.048271	0.000000	0.000000	-18.096541	0.000000	0.000000	81.434435	0.000000	-9.048271	0.000000	0.000000	0.000000	0.000000	0.000000	0.000000	0.000000	0.000000	0.000000	0.000000	0.000000	0.000000	0.000000	0.000000	0.000000
0.646667	0.000000	0.000000	0.000000	0.000000	0.000000	0.000000	-17.914235	0.000000	0.000000	80.614058	0.000000	-8.957118	0.000000	0.000000	-17.914235	0.000000	0.000000	80.614058	0.000000	-8.957118	0.000000	0.000000	0.000000	0.000000	0.000000	0.000000	0.000000	0.000000	0.000000	0.000000	0.000000	0.000000	0.000000	0.000000	0.000000
0.653333	0.000000	0.000000	0.000000	0.000000	0.000000	0.000000	-17.724072	0.000000	0.000000	79.758322	0.000000	-8.862036	0.000000	0.000000	-17.724072	0.000000	0.000000	79.758322	0.000000	-8.862036	0.000000	0.000000	0.000000	0.000000	0.000000	0.000000	0.000000	0.000000	0.000000	0.000000	0.000000	0.000000	0.000000	0.000000	0.000000
